<mxfile host="app.diagrams.net" modified="2021-04-02T03:07:05.115Z" agent="5.0 (Windows NT 10.0; Win64; x64) AppleWebKit/537.36 (KHTML, like Gecko) Chrome/91.0.4456.0 Safari/537.36 Edg/91.0.844.0" etag="W_cv_0aenyTnfe_NvOJB" version="14.5.3" type="github">
  <diagram id="5aa129d9-4b51-9b99-0a78-bb2f967fc3d4" name="Page-1">
    <mxGraphModel dx="1822" dy="794" grid="1" gridSize="10" guides="1" tooltips="1" connect="1" arrows="1" fold="1" page="0" pageScale="1" pageWidth="827" pageHeight="1169" background="#ffffff" math="0" shadow="0">
      <root>
        <mxCell id="0" />
        <mxCell id="1" parent="0" />
        <mxCell id="y1rh6phJj4241kgfLrmI-49" value="&lt;font style=&quot;font-size: 14px&quot;&gt;商家&lt;/font&gt;" style="shape=umlActor;verticalLabelPosition=bottom;verticalAlign=top;html=1;outlineConnect=0;movable=1;resizable=1;rotatable=1;deletable=1;editable=1;connectable=1;" parent="1" vertex="1">
          <mxGeometry x="-53" y="80" width="30" height="60" as="geometry" />
        </mxCell>
        <mxCell id="y1rh6phJj4241kgfLrmI-62" value="门店" style="shape=umlLifeline;perimeter=lifelinePerimeter;whiteSpace=wrap;html=1;container=1;collapsible=0;recursiveResize=0;outlineConnect=0;fontSize=14;" parent="1" vertex="1">
          <mxGeometry x="640" y="80" width="120" height="760" as="geometry" />
        </mxCell>
        <mxCell id="QpcFcwuWjfST1NYp_s-o-11" value="" style="html=1;points=[];perimeter=orthogonalPerimeter;fillColor=#60a917;strokeColor=#2D7600;fontColor=#ffffff;" parent="y1rh6phJj4241kgfLrmI-62" vertex="1">
          <mxGeometry x="55" y="630" width="10" height="120" as="geometry" />
        </mxCell>
        <mxCell id="y1rh6phJj4241kgfLrmI-64" value="&lt;font style=&quot;font-size: 14px&quot;&gt;科脉微平台系统&lt;/font&gt;" style="shape=umlLifeline;perimeter=lifelinePerimeter;whiteSpace=wrap;html=1;container=1;collapsible=0;recursiveResize=0;outlineConnect=0;" parent="1" vertex="1">
          <mxGeometry x="120" y="80" width="120" height="760" as="geometry" />
        </mxCell>
        <mxCell id="y1rh6phJj4241kgfLrmI-65" value="" style="html=1;points=[];perimeter=orthogonalPerimeter;fillColor=#1ba1e2;strokeColor=#006EAF;fontColor=#ffffff;" parent="y1rh6phJj4241kgfLrmI-64" vertex="1">
          <mxGeometry x="54" y="120" width="10" height="40" as="geometry" />
        </mxCell>
        <mxCell id="4BZDmEeJrpNxiXNP47-b-2" value="" style="html=1;points=[];perimeter=orthogonalPerimeter;fillColor=#1ba1e2;strokeColor=#006EAF;fontColor=#ffffff;" vertex="1" parent="y1rh6phJj4241kgfLrmI-64">
          <mxGeometry x="55" y="250" width="10" height="470" as="geometry" />
        </mxCell>
        <mxCell id="y1rh6phJj4241kgfLrmI-76" value="" style="endArrow=none;dashed=1;html=1;movable=1;resizable=1;rotatable=1;deletable=1;editable=1;connectable=1;" parent="1" edge="1">
          <mxGeometry width="50" height="50" relative="1" as="geometry">
            <mxPoint x="-40" y="840" as="sourcePoint" />
            <mxPoint x="-38.5" y="160" as="targetPoint" />
          </mxGeometry>
        </mxCell>
        <mxCell id="QpcFcwuWjfST1NYp_s-o-5" value="&lt;div style=&quot;text-align: left&quot;&gt;&lt;span style=&quot;font-size: 14px&quot;&gt;&lt;font color=&quot;#333333&quot;&gt;在门店信息中设置附属门店&lt;/font&gt;&lt;/span&gt;&lt;/div&gt;" style="html=1;verticalAlign=bottom;endArrow=block;labelBackgroundColor=none;fontFamily=Verdana;fontSize=12;edgeStyle=elbowEdgeStyle;elbow=vertical;" parent="1" edge="1">
          <mxGeometry x="-0.1041" y="10" relative="1" as="geometry">
            <mxPoint x="-40" y="210" as="sourcePoint" />
            <mxPoint x="170" y="210" as="targetPoint" />
            <mxPoint as="offset" />
            <Array as="points">
              <mxPoint x="65" y="210" />
            </Array>
          </mxGeometry>
        </mxCell>
        <mxCell id="QpcFcwuWjfST1NYp_s-o-9" value="&lt;span style=&quot;font-size: 14px&quot;&gt;用户&lt;/span&gt;" style="shape=umlActor;verticalLabelPosition=bottom;verticalAlign=top;html=1;outlineConnect=0;movable=1;resizable=1;rotatable=1;deletable=1;editable=1;connectable=1;" parent="1" vertex="1">
          <mxGeometry x="410" y="80" width="30" height="60" as="geometry" />
        </mxCell>
        <mxCell id="QpcFcwuWjfST1NYp_s-o-10" value="" style="endArrow=none;dashed=1;html=1;movable=1;resizable=1;rotatable=1;deletable=1;editable=1;connectable=1;" parent="1" edge="1">
          <mxGeometry width="50" height="50" relative="1" as="geometry">
            <mxPoint x="425" y="840" as="sourcePoint" />
            <mxPoint x="424.5" y="160" as="targetPoint" />
          </mxGeometry>
        </mxCell>
        <mxCell id="4BZDmEeJrpNxiXNP47-b-1" value="&lt;div style=&quot;text-align: left ; font-size: 14px&quot;&gt;扫桌台码或打开指定门店&lt;/div&gt;" style="html=1;verticalAlign=bottom;endArrow=block;labelBackgroundColor=none;fontFamily=Verdana;fontSize=14;edgeStyle=elbowEdgeStyle;elbow=vertical;" edge="1" parent="1">
          <mxGeometry x="0.483" y="-10" relative="1" as="geometry">
            <mxPoint x="255.5" y="330" as="sourcePoint" />
            <mxPoint x="180" y="330" as="targetPoint" />
            <mxPoint x="1" as="offset" />
            <Array as="points">
              <mxPoint x="430.5" y="330" />
            </Array>
          </mxGeometry>
        </mxCell>
        <mxCell id="4BZDmEeJrpNxiXNP47-b-3" value="&lt;span style=&quot;font-size: 14px&quot;&gt;自动汇集不同门店的菜品&lt;/span&gt;" style="html=1;verticalAlign=bottom;endArrow=block;labelBackgroundColor=#ffffff;fontFamily=Verdana;fontSize=12;elbow=vertical;edgeStyle=orthogonalEdgeStyle;exitX=1.066;exitY=0.713;exitPerimeter=0;rounded=0;" edge="1" parent="1">
          <mxGeometry x="0.0674" relative="1" as="geometry">
            <mxPoint x="185.65999999999985" y="373.0100000000002" as="sourcePoint" />
            <mxPoint x="179.5" y="423" as="targetPoint" />
            <Array as="points">
              <mxPoint x="290" y="373" />
              <mxPoint x="290" y="423" />
            </Array>
            <mxPoint as="offset" />
          </mxGeometry>
        </mxCell>
        <mxCell id="4BZDmEeJrpNxiXNP47-b-4" value="&lt;font color=&quot;#333333&quot;&gt;&lt;span style=&quot;font-size: 14px&quot;&gt;展示点餐页面&lt;/span&gt;&lt;/font&gt;" style="html=1;verticalAlign=bottom;endArrow=block;labelBackgroundColor=none;fontFamily=Verdana;fontSize=12;edgeStyle=elbowEdgeStyle;elbow=vertical;" edge="1" parent="1">
          <mxGeometry x="-0.1041" y="10" relative="1" as="geometry">
            <mxPoint x="180" y="480" as="sourcePoint" />
            <mxPoint x="420" y="480" as="targetPoint" />
            <mxPoint as="offset" />
            <Array as="points">
              <mxPoint x="285" y="480" />
            </Array>
          </mxGeometry>
        </mxCell>
        <mxCell id="4BZDmEeJrpNxiXNP47-b-5" value="&lt;div style=&quot;text-align: left ; font-size: 14px&quot;&gt;用户点菜下单&lt;/div&gt;" style="html=1;verticalAlign=bottom;endArrow=block;labelBackgroundColor=none;fontFamily=Verdana;fontSize=14;edgeStyle=elbowEdgeStyle;elbow=vertical;" edge="1" parent="1">
          <mxGeometry x="0.483" y="-10" relative="1" as="geometry">
            <mxPoint x="255.5" y="550" as="sourcePoint" />
            <mxPoint x="190" y="550" as="targetPoint" />
            <mxPoint x="1" as="offset" />
            <Array as="points">
              <mxPoint x="430.5" y="550" />
            </Array>
          </mxGeometry>
        </mxCell>
        <mxCell id="4BZDmEeJrpNxiXNP47-b-6" value="&lt;span style=&quot;font-size: 14px&quot;&gt;创建菜品所属门店的订单&lt;/span&gt;" style="html=1;verticalAlign=bottom;endArrow=block;labelBackgroundColor=#ffffff;fontFamily=Verdana;fontSize=12;elbow=vertical;edgeStyle=orthogonalEdgeStyle;exitX=1.066;exitY=0.713;exitPerimeter=0;rounded=0;" edge="1" parent="1">
          <mxGeometry x="0.0674" relative="1" as="geometry">
            <mxPoint x="186.15999999999985" y="590.0100000000002" as="sourcePoint" />
            <mxPoint x="180" y="640" as="targetPoint" />
            <Array as="points">
              <mxPoint x="290.5" y="590" />
              <mxPoint x="290.5" y="640" />
            </Array>
            <mxPoint as="offset" />
          </mxGeometry>
        </mxCell>
        <mxCell id="4BZDmEeJrpNxiXNP47-b-8" value="&lt;font color=&quot;#333333&quot;&gt;&lt;span style=&quot;font-size: 14px&quot;&gt;不同门店的订单推送给相应门店的POS&lt;/span&gt;&lt;/font&gt;" style="html=1;verticalAlign=bottom;endArrow=block;labelBackgroundColor=none;fontFamily=Verdana;fontSize=12;edgeStyle=elbowEdgeStyle;elbow=vertical;" edge="1" parent="1" target="y1rh6phJj4241kgfLrmI-62">
          <mxGeometry x="-0.1041" y="10" relative="1" as="geometry">
            <mxPoint x="190" y="720" as="sourcePoint" />
            <mxPoint x="640" y="720" as="targetPoint" />
            <mxPoint as="offset" />
            <Array as="points">
              <mxPoint x="285" y="720" />
            </Array>
          </mxGeometry>
        </mxCell>
        <mxCell id="4BZDmEeJrpNxiXNP47-b-9" value="&lt;div style=&quot;text-align: left ; font-size: 14px&quot;&gt;送餐员汇集该用户的订单给用户送餐&lt;/div&gt;" style="html=1;verticalAlign=bottom;endArrow=block;labelBackgroundColor=none;fontFamily=Verdana;fontSize=14;edgeStyle=elbowEdgeStyle;elbow=vertical;" edge="1" parent="1">
          <mxGeometry x="0.483" y="-10" relative="1" as="geometry">
            <mxPoint x="485.5" y="820" as="sourcePoint" />
            <mxPoint x="430" y="820" as="targetPoint" />
            <mxPoint x="1" as="offset" />
            <Array as="points">
              <mxPoint x="690" y="820" />
            </Array>
          </mxGeometry>
        </mxCell>
      </root>
    </mxGraphModel>
  </diagram>
</mxfile>
